<?xml version="1.0" encoding="UTF-8"?>
<svg xmlns="http://www.w3.org/2000/svg" xmlns:xlink="http://www.w3.org/1999/xlink" width="77.5pt" height="77.5pt" viewBox="32.5 32 77.5 77.5" version="1.1">
<g id="surface1">
<path style=" stroke:none;fill-rule:nonzero;fill:rgb(100%,100%,100%);fill-opacity:1;" d="M 5.488281 28.363281 C 4.347656 23.570313 1.164063 19.5625 -3.085938 17.3125 C 0.894531 19.890625 3.960938 23.777344 5.488281 28.363281 "/>
<path style=" stroke:none;fill-rule:nonzero;fill:rgb(100%,100%,100%);fill-opacity:1;" d="M 5.957031 32.296875 C 5.957031 30.941406 5.789063 29.625 5.488281 28.363281 C 3.960938 23.777344 0.894531 19.890625 -3.089844 17.3125 C -5.449219 16.0625 -8.136719 15.351563 -10.988281 15.351563 C -20.328125 15.351563 -27.933594 22.953125 -27.933594 32.296875 C -27.933594 33.128906 -27.867188 33.945313 -27.753906 34.746094 C -27.730469 33.878906 -27.628906 33.035156 -27.449219 32.21875 C -27.40625 23.175781 -20.039063 15.832031 -10.988281 15.832031 C -1.910156 15.832031 5.476563 23.21875 5.476563 32.296875 C 5.476563 41.375 -1.910156 48.757813 -10.988281 48.757813 C -12.382813 48.757813 -13.738281 48.582031 -15.03125 48.253906 C -15.875 48.222656 -16.699219 48.121094 -17.492188 47.9375 C -15.488281 48.777344 -13.292969 49.242188 -10.988281 49.242188 C -1.644531 49.242188 5.957031 41.636719 5.957031 32.296875 "/>
<path style=" stroke:none;fill-rule:nonzero;fill:rgb(84.979248%,9.881592%,12.70752%);fill-opacity:1;" d="M 70.863281 47.34375 C 83.855469 47.34375 94.382813 57.878906 94.382813 70.863281 C 94.382813 83.855469 83.855469 94.386719 70.863281 94.386719 C 70.582031 94.386719 70.296875 94.371094 70.007813 94.359375 C 72.316406 94.941406 74.730469 95.257813 77.214844 95.257813 C 93.382813 95.257813 106.535156 82.105469 106.535156 65.933594 C 106.535156 49.769531 93.382813 36.621094 77.214844 36.621094 C 61.09375 36.621094 47.972656 49.695313 47.894531 65.800781 C 50.214844 55.246094 59.617188 47.34375 70.863281 47.34375 "/>
<path style=" stroke:none;fill-rule:nonzero;fill:rgb(84.979248%,9.881592%,12.70752%);fill-opacity:1;" d="M 77.214844 35.761719 C 82.292969 35.761719 87.078125 37.027344 91.28125 39.25 C 85.398438 35.445313 78.390625 33.234375 70.863281 33.234375 C 50.082031 33.234375 33.234375 50.082031 33.234375 70.863281 C 33.234375 82.789063 38.777344 93.417969 47.433594 100.3125 C 47.433594 100.3125 47.347656 71.082031 47.347656 70.863281 C 47.347656 70.675781 47.355469 70.488281 47.359375 70.300781 C 47.152344 68.871094 47.039063 67.417969 47.039063 65.933594 C 47.039063 49.300781 60.578125 35.761719 77.214844 35.761719 "/>
<path style=" stroke:none;fill-rule:nonzero;fill:rgb(84.979248%,9.881592%,12.70752%);fill-opacity:1;" d="M 106.558594 58.929688 C 107.09375 61.183594 107.390625 63.527344 107.390625 65.9375 C 107.390625 82.578125 93.855469 96.113281 77.214844 96.113281 C 73.109375 96.113281 69.199219 95.285156 65.628906 93.796875 C 63.980469 93.417969 62.402344 92.871094 60.902344 92.171875 L 60.902344 107.160156 C 64.078125 108.027344 67.417969 108.496094 70.863281 108.496094 C 91.644531 108.496094 108.496094 91.648438 108.496094 70.863281 C 108.496094 66.691406 107.8125 62.683594 106.558594 58.929688 "/>
</g>
</svg>
