<svg version="1.1" xmlns="http://www.w3.org/2000/svg" xmlns:xlink="http://www.w3.org/1999/xlink" width="2400" height="1600">
    <defs/>
    <g transform="scale(2,2)">
        <g id="background-669e0ef4">
            <rect fill="white" stroke="none" x="0" y="0" width="1200" height="800" class="dcg-svg-background"/>
        </g>
        <g id="background-images-669e0ef4"/>
        <g id="graphpaper-669e0ef4">
            <g id="axis-669e0ef4">
                <g>
                    <g>
                        <path fill="none" stroke="rgb(0,0,0)" class="dcg-svg-tickmark" paint-order="fill stroke markers" d="" stroke-opacity="0.9" stroke-miterlimit="2" stroke-width="1.5" stroke-dasharray=""/>
                    </g>
                </g>
            </g>
        </g>
        <g id="expressions-669e0ef4">
            <path fill="#c74440" stroke="none" paint-order="stroke fill markers" d="" fill-opacity="0.4"/>
            <g>
                <path fill="none" stroke="#c74440" class="dcg-svg-curve" paint-order="fill stroke markers" d=" M -0.5 114.81443555605392 L -0.5 114.81443555605392 L 2.13671875 84.74954840667965 L 4.187500000000001 67.21859163511886 L 5.9453125 56.37710593281645 L 7.410156249999998 50.32131723168641 L 8.582031249999998 47.42615125330883 L 9.460937499999998 46.38602927774161 L 9.971731535432975 46.224106359128086 L 10.632812499999996 46.494102725927405 L 11.511718749999998 47.683568792280084 L 12.683593749999998 50.72352218693254 L 14.148437499999998 56.8083532036145 L 15.906249999999996 67.34636064788924 L 17.957031249999996 83.8746513592829 L 20.30078125 107.93287043685996 L 23.230468749999996 144.89838486169106 L 26.746093749999993 197.64121476294133 L 31.433593749999993 278.06947011279874 L 46.082031249999986 537.6527589836372 L 49.890625 591.7091766059953 L 53.11328124999999 629.358536386072 L 55.74999999999999 653.8803645198585 L 58.093749999999986 670.582629758635 L 60.14453124999999 681.1166971705455 L 61.90234374999999 687.066409294851 L 63.367187499999986 689.848386191239 L 64.53906249999999 690.6581787063534 L 65.41796875 690.4478083061248 L 66.296875 689.5447863447492 L 67.46875 687.279544188091 L 68.93359374999999 682.7806426553074 L 70.69140625 675.0209529073257 L 72.74218749999999 662.8799830210364 L 75.0859375 645.2362604486659 L 78.01562499999999 618.1591116010993 L 81.53124999999999 579.562480229061 L 86.21874999999999 520.7567823182683 L 100.8671875 331.240434836454 L 104.67578124999997 291.83675921661904 L 107.89843749999999 264.4173091815816 L 110.53515624999999 246.5780795898943 L 112.87890625 234.44555570233524 L 114.92968749999997 226.81138448176796 L 116.68749999999997 222.51746309629414 L 118.15234374999999 220.52850206663572 L 119.45464806642457 219.96549886670493 L 120.20312499999999 220.15007279108602 L 121.37499999999999 221.17402760459072 L 122.83984374999997 223.692058883787 L 124.59765624999999 228.47453429607253 L 126.6484375 236.37001338514642 L 128.99218749999997 248.2400139203803 L 131.62890624999997 264.86772397039715 L 134.85156249999997 289.212632618698 L 138.95312499999997 325.110374690793 L 145.69140625 390.48076673283134 L 153.30859374999997 462.88625643556594 L 157.703125 498.9511935925324 L 161.21874999999997 523.0028937555505 L 164.1484375 539.1448755374472 L 166.78515625 550.3376384386713 L 168.83593749999997 556.7477791293541 L 170.59375 560.6062728063816 L 172.35156249999997 562.9444512156888 L 173.81640624999997 563.7358769659666 L 174.98828124999997 563.6197389693964 L 176.16015624999997 562.8475800629667 L 177.62499999999997 560.9788044190697 L 179.38281249999997 557.4514748226959 L 181.43359374999997 551.6469232136478 L 183.77734374999997 542.937486394665 L 186.41406249999997 530.7532477481839 L 189.63671874999994 512.9320787095717 L 193.73828124999997 486.6767979125455 L 200.47656249999997 438.91040575156904 L 208.09374999999997 386.0589653412827 L 212.48828124999997 359.7596040194467 L 216.00390625 342.23564442651104 L 218.93359374999997 330.48650519101614 L 221.57031249999997 322.3507722767767 L 223.91406249999994 317.15844790774594 L 225.96484375 314.22643049335124 L 227.72265624999994 312.91578629348476 L 228.93756459741616 312.6544626990823 L 230.06640625 312.87807079752594 L 231.53124999999997 313.82659219932185 L 233.28906249999997 315.92073464966626 L 235.33984374999997 319.6276070462308 L 237.68359374999994 325.4274640195251 L 240.32031249999997 333.7659193368229 L 243.54296875 346.21330972332055 L 247.3515625 363.4561844221239 L 252.91796874999997 391.72928498106825 L 262.87890624999994 442.66117239680307 L 267.27343749999994 461.83910008613356 L 270.7890625 474.606833605046 L 273.71874999999994 483.15844491037535 L 276.35546874999994 489.07193835182386 L 278.69921874999994 492.8378686109421 L 280.75 494.9559018307621 L 282.50781249999994 495.8930934014541 L 283.97265624999994 496.0593668267404 L 285.4375 495.67527616793683 L 287.19531249999994 494.5048884372989 L 289.24609374999994 492.196588667147 L 291.58984374999994 488.3843334503189 L 294.22656249999994 482.7217638128937 L 297.44921874999994 474.0711296088809 L 301.25781249999994 461.86718506296313 L 306.53124999999994 442.62582770302487 L 318.54296875 397.9881104620569 L 322.64453124999994 385.30019380711065 L 326.16015624999994 376.31461693595685 L 329.08984374999994 370.38724300112676 L 331.7265625 366.3736229116789 L 334.36328124999994 363.6682472372778 L 336.41406249999994 362.48404926581804 L 338.17187499999994 362.1087394655057 L 339.9296875 362.31578027431044 L 341.6875 363.09143493721575 L 343.7382812499999 364.6890651324551 L 346.37499999999994 367.7770596886013 L 349.3046875 372.45150928044757 L 352.52734374999994 378.9019658765135 L 356.62890624999994 388.6786028270077 L 362.48828125 404.5333728166217 L 372.74218749999994 432.40869360473704 L 377.13671874999994 442.4926451917057 L 380.94531249999994 449.6454096512296 L 384.16796874999994 454.3286631757641 L 387.09765624999994 457.3935404177908 L 389.734375 459.1380859179628 L 391.7851562499999 459.8223330829358 L 393.83593749999994 459.92204672756316 L 395.88671875 459.4494482224345 L 397.93749999999994 458.4243787200237 L 400.2812499999999 456.6113319328043 L 403.21093749999994 453.4586464074454 L 406.72656249999994 448.5382062027045 L 410.82812499999994 441.5458567972048 L 416.68749999999994 430.0705015596744 L 427.8203124999999 407.9948264839283 L 432.5078125 400.2913265549167 L 436.3164062499999 395.26791281133967 L 439.83203124999994 391.7944084923213 L 442.76171874999994 389.8261457782905 L 445.3984375 388.80041738986137 L 447.7421874999999 388.4843895584413 L 450.0859374999999 388.7198024302884 L 452.4296875 389.48778133331706 L 455.06640624999994 390.95319549791833 L 458.28906249999994 393.53389569428344 L 462.0976562499999 397.5474317804751 L 467.07812499999994 403.9941045760453 L 475.2812499999999 416.0830166028162 L 482.8984374999999 426.87218140515984 L 487.87890624999994 432.72787705697505 L 491.9804687499999 436.4778931712265 L 495.4960937499999 438.78706745470174 L 498.42578124999994 440.02527237882344 L 501.06249999999994 440.59276987606285 L 503.69921874999994 440.64446154809406 L 506.33593749999994 440.1945486381026 L 509.26562499999994 439.1373196905453 L 512.48828125 437.354267028077 L 516.2968749999999 434.52260477416604 L 521.2773437499999 429.9051319085986 L 529.7734374999999 420.79822550205546 L 538.2695312499999 412.0558854323756 L 543.25 407.89789965870295 L 547.3515624999999 405.280670697435 L 550.8671875 403.70938640015993 L 554.0898437499999 402.85028778000833 L 557.386314190391 402.55658790609647 L 560.5351562499999 402.8181150945127 L 563.7578125 403.60544033730076 L 567.2734374999999 405.0100463355212 L 571.375 407.26436076379144 L 576.6484375 410.8967004961977 L 587.1953124999999 419.19927046992063 L 594.2265624999999 424.2717499996063 L 599.2070312499999 427.13151642069437 L 603.6015624999999 428.9663953659022 L 607.4101562499999 429.9653364889378 L 611.2187499999999 430.3894938063703 L 615.0273437499999 430.2435073114048 L 618.8359374999999 429.5586285541025 L 622.9374999999999 428.282245859147 L 627.9179687499999 426.11757334551965 L 634.6562499999999 422.4776061276407 L 649.0117187499999 414.5242797161573 L 654.578125 412.23312388090244 L 659.2656249999999 410.9012015707316 L 663.6601562499999 410.21309522341653 L 668.0546874999999 410.0846044322213 L 672.4492187499998 410.49620887365256 L 677.1367187499999 411.4711832838445 L 682.7031249999999 413.21234422593886 L 690.3203125 416.24503959485014 L 703.7968749999999 421.67949496970124 L 709.9492187499999 423.4934717803735 L 715.2226562499998 424.4905035836646 L 720.203125 424.9010393681462 L 725.1835937499999 424.79091626354983 L 730.4570312499998 424.14932952953615 L 736.6093749999998 422.8377044763717 L 744.8125 420.48475175960175 L 759.7539062499999 416.1410113485831 L 766.4921875 414.81883707127633 L 772.3515625 414.193357812497 L 778.2109375 414.0961991999518 L 784.36328125 414.5360577930288 L 791.39453125 415.6004006008263 L 801.3554687499998 417.7199476732486 L 815.125 420.59142419822825 L 822.7421874999998 421.60313562742806 L 829.4804687499999 421.9816517777505 L 836.51171875 421.8374838456087 L 844.1289062499998 421.13731214521187 L 854.3828124999999 419.6146783648306 L 871.6679687499998 417.0213835448465 L 880.1640624999998 416.33935238344986 L 888.0742187499999 416.22712587173623 L 896.5703124999999 416.64262466922713 L 907.41015625 417.74156696408147 L 928.796875 420.02077701393836 L 938.4648437499998 420.42211297388087 L 947.8398437499998 420.2852937843143 L 959.2656249999998 419.55762390052035 L 987.9765624999999 417.46536108080755 L 998.81640625 417.37303718919713 L 1010.828125 417.80736799642114 L 1048.6210937499998 419.5994971772359 L 1061.8046875 419.4016066486637 L 1085.8281249999998 418.3598618575201 L 1102.234375 417.96279161577087 L 1117.7617187499998 418.13176702662685 L 1166.39453125 419.12042736997654 L 1191.296875 418.58620905370145 L 1199.5 418.4138650703286" stroke-linecap="round" stroke-linejoin="round" stroke-miterlimit="10" stroke-width="2.5" stroke-opacity="0.7" stroke-dasharray=""/>
            </g>
        </g>
    </g>
</svg>